# xmcd
#
# Track frame offsets:
#	150
#	16131
#	33915
#	52459
#	70330
#	85340
#	103709
#	122045
#	138798
#	156540
#	173749
#	189445
#	208332
#	224138
#	237594
#	254879
#	276575
#	293982
#	308019
#	325754
#
# Disc length: 4516 seconds
#
# Revision: 0
# Processed by: cddbd v1.5.2PL0 Copyright (c) Steve Scherf et al.
# Submitted via: audiograbber 1.83.01
#
DISCID=4511a214
DTITLE=Variious - Hott Country 134
DYEAR=2007
DGENRE=Country
TTITLE0=Dixie Chicks - Neighbor
TTITLE1=Brad Paisley - Ticks
TTITLE2=George Canyon - I Want You To Live
TTITLE3=Doc Walker - Driving With The Brakes On
TTITLE4=Toby Keith - High Maintenance Woman
TTITLE5=George Strait - Wrapped
TTITLE6=Bon Jovi - You Want To Make A Memory ( Country Version )
TTITLE7=Carolyn Dawn Johnson - Into You
TTITLE8=Jamie O'Neil - God Don't Make Mistakes ( Radio Edit ) 
TTITLE9=Jason Michael Carroll - Livin' Our love Song
TTITLE10=Bucky Covington - A Different World
TTITLE11=Randy Rogers Band - One More Goodbye
TTITLE12=Jessie Farrell - Let's Talk About Love
TTITLE13=Terri Clark - Dirty Girl
TTITLE14=Carolyn Dawn Johnson - Got A Good Day
TTITLE15=Vince Gill - What You Give Away
TTITLE16=Lucinda Williams - Are You Alright
TTITLE17=Chris Cummings - Love Is Fine
TTITLE18=Kenny Rogers Feat Don Henley - Calling Me
TTITLE19=Hal Ketchum - Small Town Saturday Night ( 1991 )
EXTD=April 2007
EXTT0=
EXTT1=
EXTT2=
EXTT3=
EXTT4=
EXTT5=
EXTT6=
EXTT7=
EXTT8=
EXTT9=
EXTT10=
EXTT11=
EXTT12=
EXTT13=
EXTT14=
EXTT15=
EXTT16=
EXTT17=
EXTT18=
EXTT19=
PLAYORDER=
